<svg data-v-423bf9ae="" xmlns="http://www.w3.org/2000/svg" viewBox="0 0 547 90" class="iconLeft"><!----><!----><!----><g data-v-423bf9ae="" id="ab1b57ca-4d5c-432a-9184-8fa116b80fb9" fill="black" transform="matrix(5.89390945003159,0,0,5.89390945003159,110.94301526847653,-1.2082509875868723)"><path d="M3.10 3.76L1.47 5.52L1.72 5.65L2.26 5.06L5.60 5.06L4.83 5.84L4.09 9.50L4.09 9.50Q3.77 11.14 3.47 11.44L3.47 11.44L3.47 11.44Q3.16 11.73 2.56 11.29L2.56 11.29L2.56 11.29Q0.66 10.04 1.73 8.58L1.73 8.58L1.65 8.46L0.77 9.16L0.77 9.16Q-0.12 9.82-0.16 10.88L-0.16 10.88L-0.16 10.88Q0.18 11.92 1.01 12.48L1.01 12.48L1.01 12.48Q2.09 13.17 3.14 12.27L3.14 12.27L3.14 12.27Q4.63 11.34 5.41 9.56L5.41 9.56L6.32 5.02L7.26 5.01L8.65 3.76L3.10 3.76ZM12.52 7.68L12.52 7.68Q11.83 8.32 11.18 8.30L11.18 8.30L8.90 8.30L8.90 8.30Q7.81 8.39 7.07 9.88L7.07 9.88L7.16 9.97L7.16 9.97Q7.60 9.45 8.24 9.47L8.24 9.47L10.94 9.47L10.94 9.47Q11.74 9.33 12.55 7.79L12.55 7.79L12.52 7.68ZM20.27 4.76L18.98 6.21L18.23 10.38L18.09 11.19L18.09 11.19Q17.78 11.90 16.66 12.90L16.66 12.90L16.82 12.93L16.82 12.93Q17.24 12.66 19.07 12.71L19.07 12.71L20.43 11.43L20.28 11.31L20.28 11.31Q19.91 11.55 18.37 11.48L18.37 11.48L18.37 11.48Q18.93 11.00 19.47 10.00L19.47 10.00L20.47 4.83L20.27 4.76ZM20.57 3.57L20.57 3.57L20.57 3.57Q19.97 3.71 19.22 4.45L19.22 4.45L16.88 7.13L16.88 7.13Q15.32 3.64 14.82 3.75L14.82 3.75L14.82 3.75Q14.33 3.86 12.76 5.22L12.76 5.22L12.94 5.36L12.94 5.36Q14.03 4.57 14.42 5.38L14.42 5.38L14.42 5.38Q13.53 6.28 13.50 6.60L13.50 6.60L12.83 10.38L12.69 11.19L12.69 11.19Q12.38 11.90 11.26 12.90L11.26 12.90L11.42 12.93L11.42 12.93Q11.84 12.66 13.67 12.71L13.67 12.71L15.03 11.43L14.88 11.31L14.88 11.31Q14.51 11.55 12.97 11.48L12.97 11.48L12.97 11.48Q13.53 11.00 14.07 10.00L14.07 10.00L14.72 6.00L16.13 8.73L16.13 8.73Q16.55 9.24 15.87 9.90L15.87 9.90L16.08 10.12L17.03 9.24L17.03 9.24Q17.86 8.48 17.12 7.66L17.12 7.66L19.64 4.70L19.64 4.70Q20.54 3.98 21.34 5.30L21.34 5.30L22.41 4.13L22.41 4.13Q22.13 3.90 21.65 3.66L21.65 3.66L21.65 3.66Q21.16 3.42 20.57 3.57ZM24.12 6.54L24.12 6.54Q23.44 6.79 22.65 7.53L22.65 7.53L22.65 7.53Q20.77 9.04 20.97 10.32L20.97 10.32L20.97 10.32Q21.17 11.59 21.79 12.30L21.79 12.30L21.79 12.30Q22.40 13.02 23.08 12.52L23.08 12.52L23.08 12.52Q24.10 11.89 25.11 10.76L25.11 10.76L24.96 10.61L24.96 10.61Q24.47 11.13 23.93 11.42L23.93 11.42L23.93 11.42Q23.17 11.79 22.65 10.68L22.65 10.68L22.65 10.68Q22.12 9.57 22.29 8.67L22.29 8.67L22.29 8.67Q22.46 7.77 23.05 7.57L23.05 7.57L23.05 7.57Q23.63 7.37 23.94 7.83L23.94 7.83L23.94 7.83Q24.25 8.29 23.96 8.63L23.96 8.63L23.96 8.63Q23.67 8.98 23.11 9.33L23.11 9.33L22.53 9.71L22.67 10.00L24.66 8.63L25.32 8.14L25.32 8.14Q25.63 7.21 25.19 6.84L25.19 6.84L25.19 6.84Q24.76 6.47 24.12 6.54L24.12 6.54ZM31.27 3.76L29.64 5.52L29.89 5.65L30.43 5.06L33.77 5.06L33.00 5.84L32.27 9.50L32.27 9.50Q31.94 11.14 31.64 11.44L31.64 11.44L31.64 11.44Q31.33 11.73 30.73 11.29L30.73 11.29L30.73 11.29Q28.83 10.04 29.90 8.58L29.90 8.58L29.83 8.46L28.94 9.16L28.94 9.16Q28.05 9.82 28.01 10.88L28.01 10.88L28.01 10.88Q28.36 11.92 29.18 12.48L29.18 12.48L29.18 12.48Q30.26 13.17 31.31 12.27L31.31 12.27L31.31 12.27Q32.80 11.34 33.58 9.56L33.58 9.56L34.49 5.02L35.43 5.01L36.82 3.76L31.27 3.76ZM38.32 6.52L38.32 6.52Q37.39 7.02 36.43 8.07L36.43 8.07L36.43 8.07Q35.46 9.11 35.26 9.85L35.26 9.85L35.26 9.85Q35.05 10.59 35.63 11.61L35.63 11.61L35.63 11.61Q36.20 12.63 36.62 12.68L36.62 12.68L36.62 12.68Q37.52 12.04 38.08 11.63L38.08 11.63L38.08 11.63Q38.12 12.37 38.93 12.73L38.93 12.73L40.61 11.09L40.41 10.94L40.05 11.26L40.05 11.26Q39.68 11.42 39.51 11.14L39.51 11.14L39.51 11.14Q39.35 10.87 39.44 10.47L39.44 10.47L40.11 7.18L40.11 7.18Q40.22 6.68 40.61 6.51L40.61 6.51L38.32 6.52ZM37.31 7.60L38.97 7.60L38.64 8.07L38.59 8.32L38.00 11.25L38.00 11.25Q37.31 11.72 36.69 10.45L36.69 10.45L36.69 10.45Q36.07 9.17 37.31 7.60L37.31 7.60ZM44.28 2.83L44.15 2.75L44.15 2.75Q43.19 3.29 42.65 3.90L42.65 3.90L42.65 3.90Q42.12 4.50 41.86 5.43L41.86 5.43L40.76 10.34L40.76 10.34Q40.69 11.12 40.82 11.57L40.82 11.57L40.82 11.57Q40.95 12.01 41.22 12.30L41.22 12.30L41.22 12.30Q41.49 12.60 42.20 12.71L42.20 12.71L42.20 12.71Q42.92 12.83 44.67 10.94L44.67 10.94L44.67 10.94Q45.86 9.25 45.82 8.13L45.82 8.13L45.82 8.13Q45.79 7.02 45.00 6.59L45.00 6.59L45.00 6.59Q44.20 6.15 42.57 7.79L42.57 7.79L43.34 4.70L43.34 4.70Q43.50 3.55 44.28 2.83L44.28 2.83ZM43.58 7.71L43.58 7.71L43.58 7.71Q44.18 7.68 44.44 8.90L44.44 8.90L44.44 8.90Q44.70 10.12 43.87 11.36L43.87 11.36L43.87 11.36Q42.98 11.95 42.49 11.44L42.49 11.44L42.49 11.44Q41.99 10.92 42.18 9.84L42.18 9.84L42.47 8.29L42.47 8.29Q42.98 7.73 43.58 7.71ZM49.52 6.52L49.52 6.52L49.52 6.52Q48.99 6.63 48.47 6.92L48.47 6.92L48.47 6.92Q47.94 7.21 47.62 7.49L47.62 7.49L47.62 7.49Q47.29 7.77 47.15 8.30L47.15 8.30L47.15 8.30Q47.01 8.83 47.22 9.23L47.22 9.23L47.22 9.23Q47.43 9.64 48.50 10.00L48.50 10.00L48.50 10.00Q49.57 10.36 49.74 10.63L49.74 10.63L49.74 10.63Q49.91 10.90 49.77 11.16L49.77 11.16L49.77 11.16Q49.64 11.43 49.39 11.52L49.39 11.52L49.39 11.52Q49.14 11.61 48.64 11.61L48.64 11.61L48.64 11.61Q48.14 11.61 47.67 11.36L47.67 11.36L47.67 11.36Q47.20 11.11 47.10 10.76L47.10 10.76L47.10 10.76Q47.00 10.41 47.34 10.04L47.34 10.04L47.28 9.93L46.14 10.84L46.14 10.84Q45.92 11.20 46.16 11.69L46.16 11.69L46.16 11.69Q46.41 12.17 46.85 12.42L46.85 12.42L46.85 12.42Q47.28 12.67 47.90 12.70L47.90 12.70L47.90 12.70Q48.51 12.74 49 12.38L49 12.38L49 12.38Q49.49 12.03 50.01 11.49L50.01 11.49L50.01 11.49Q50.52 10.94 50.67 10.37L50.67 10.37L50.67 10.37Q50.82 9.79 50.60 9.35L50.60 9.35L50.60 9.35Q50.38 8.91 49.21 8.61L49.21 8.61L49.21 8.61Q48.04 8.31 48.03 7.89L48.03 7.89L48.03 7.89Q48.02 7.46 48.56 7.35L48.56 7.35L48.56 7.35Q49.10 7.23 49.61 7.48L49.61 7.48L49.61 7.48Q50.13 7.73 49.54 8.33L49.54 8.33L49.64 8.35L50.95 7.27L50.95 7.27Q50.83 6.84 50.44 6.62L50.44 6.62L50.44 6.62Q50.05 6.41 49.52 6.52ZM56 3.79L54.45 5.62L54.66 5.71L54.66 5.71Q54.97 5.24 55.46 5.22L55.46 5.22L56.84 5.23L56.84 5.23Q55.72 5.91 55.55 6.59L55.55 6.59L54.80 10.32L54.63 11.15L54.63 11.15Q54.30 11.87 53.15 12.90L53.15 12.90L53.31 12.93L53.31 12.93Q53.74 12.66 55.57 12.70L55.57 12.70L56.96 11.40L56.82 11.27L56.82 11.27Q56.44 11.51 54.89 11.45L54.89 11.45L54.89 11.45Q55.47 10.95 56.25 9.93L56.25 9.93L57.25 5.20L57.28 5.18L58.56 3.92L58.54 3.78L56 3.79ZM59.21 6.51L57.67 7.80L57.79 8.00L58.26 7.64L58.26 7.64Q58.81 7.67 58.54 8.76L58.54 8.76L57.98 11.57L57.98 11.57Q57.79 12.58 58.56 12.71L58.56 12.71L60.10 11.44L59.99 11.31L59.53 11.64L59.53 11.64Q59.28 11.53 59.49 10.62L59.49 10.62L60.00 8.05L60.80 7.63L60.80 7.63Q62.18 7.32 61.71 9.03L61.71 9.03L61.20 11.54L61.20 11.54Q60.99 12.54 61.53 12.69L61.53 12.69L63.29 11.43L63.18 11.25L62.71 11.62L62.71 11.62Q62.48 11.59 62.64 10.81L62.64 10.81L63.19 8.10L63.19 8.10Q63.36 7.18 62.86 6.79L62.86 6.79L62.86 6.79Q62.36 6.41 61.74 6.51L61.74 6.51L60.01 7.73L60.01 7.73Q60.08 6.64 59.21 6.51L59.21 6.51ZM66.84 3.00L66.84 3.00Q64.81 4.17 64.52 6.06L64.52 6.06L63.45 11.42L63.45 11.42Q63.33 12.35 64.05 12.71L64.05 12.71L65.82 11.41L65.69 11.22L65.69 11.22Q64.49 12.15 65.19 9.77L65.19 9.77L65.19 9.77Q65.70 9.55 65.99 9.77L65.99 9.77L65.99 9.77Q66.29 9.99 66.71 11.36L66.71 11.36L66.71 11.36Q67.12 12.74 67.62 12.74L67.62 12.74L69.25 11.23L69.08 11.05L69.08 11.05Q68.33 11.89 67.99 10.46L67.99 10.46L67.99 10.46Q67.65 9.03 66.86 8.89L66.86 8.89L66.86 8.89Q67.48 8.59 67.94 8.01L67.94 8.01L67.94 8.01Q68.40 7.42 68.37 6.52L68.37 6.52L66.64 7.51L66.64 7.51Q66.73 8.44 66.44 8.72L66.44 8.72L66.44 8.72Q66.14 9.00 65.19 9.29L65.19 9.29L66.00 5.26L66.00 5.26Q66.36 3.53 67.02 3.12L67.02 3.12L66.84 3.00ZM72.46 6.52L72.46 6.52L72.46 6.52Q71.93 6.63 71.41 6.92L71.41 6.92L71.41 6.92Q70.88 7.21 70.56 7.49L70.56 7.49L70.56 7.49Q70.23 7.77 70.09 8.30L70.09 8.30L70.09 8.30Q69.95 8.83 70.16 9.23L70.16 9.23L70.16 9.23Q70.37 9.64 71.44 10.00L71.44 10.00L71.44 10.00Q72.51 10.36 72.68 10.63L72.68 10.63L72.68 10.63Q72.85 10.90 72.71 11.16L72.71 11.16L72.71 11.16Q72.58 11.43 72.33 11.52L72.33 11.52L72.33 11.52Q72.08 11.61 71.58 11.61L71.58 11.61L71.58 11.61Q71.08 11.61 70.61 11.36L70.61 11.36L70.61 11.36Q70.14 11.11 70.04 10.76L70.04 10.76L70.04 10.76Q69.95 10.41 70.28 10.04L70.28 10.04L70.23 9.93L69.08 10.84L69.08 10.84Q68.86 11.20 69.10 11.69L69.10 11.69L69.10 11.69Q69.35 12.17 69.79 12.42L69.79 12.42L69.79 12.42Q70.23 12.67 70.84 12.70L70.84 12.70L70.84 12.70Q71.45 12.74 71.94 12.38L71.94 12.38L71.94 12.38Q72.43 12.03 72.95 11.49L72.95 11.49L72.95 11.49Q73.47 10.94 73.61 10.37L73.61 10.37L73.61 10.37Q73.76 9.79 73.54 9.35L73.54 9.35L73.54 9.35Q73.32 8.91 72.15 8.61L72.15 8.61L72.15 8.61Q70.98 8.31 70.97 7.89L70.97 7.89L70.97 7.89Q70.96 7.46 71.50 7.35L71.50 7.35L71.50 7.35Q72.04 7.23 72.55 7.48L72.55 7.48L72.55 7.48Q73.07 7.73 72.48 8.33L72.48 8.33L72.58 8.35L73.89 7.27L73.89 7.27Q73.77 6.84 73.38 6.62L73.38 6.62L73.38 6.62Q72.99 6.41 72.46 6.52Z"></path></g><!----><g data-v-423bf9ae="" id="66e1b6d6-be4e-4fb6-ad5c-f0912ce5a6a1" transform="matrix(2.8125,0,0,2.8125,0,0)" stroke="none" fill="black"><path d="M9.571 20.464l8.064 4.47 8.065-4.47v-8.939l-8.065-4.469-8.064 4.469z"></path><path d="M32 0H0v32h32l-5.054-5.172H5.054V5.172h21.892z"></path></g><!----></svg>